<svg width="67" height="52" viewBox="0 0 67 52" fill="none" xmlns="http://www.w3.org/2000/svg">
<path d="M55.25 27.6206L34 48.6666L12.75 27.6206C11.3484 26.2567 10.2443 24.6174 9.50737 22.8058C8.77044 20.9942 8.41658 19.0497 8.46808 17.0946C8.51958 15.1396 8.97532 13.2164 9.8066 11.4461C10.6379 9.67584 11.8267 8.09687 13.2982 6.80862C14.7697 5.52038 16.492 4.55077 18.3566 3.96084C20.2213 3.37092 22.1878 3.17347 24.1325 3.38092C26.0772 3.58837 27.9579 4.19623 29.6561 5.16622C31.3544 6.13621 32.8334 7.44732 34 9.01698C35.1717 7.45871 36.6524 6.15906 38.3494 5.19936C40.0465 4.23967 41.9234 3.64059 43.8626 3.43962C45.8019 3.23866 47.7617 3.44013 49.6195 4.03143C51.4773 4.62272 53.1931 5.59112 54.6594 6.87601C56.1257 8.1609 57.311 9.73462 58.1412 11.4987C58.9713 13.2627 59.4284 15.1792 59.4839 17.128C59.5393 19.0768 59.1919 21.0161 58.4634 22.8245C57.7349 24.6329 56.6409 26.2715 55.25 27.6376" stroke="white" stroke-width="4" stroke-linecap="round" stroke-linejoin="round"/>
<path d="M34 9L24.6698 18.3302C24.1387 18.8615 23.8403 19.582 23.8403 20.3333C23.8403 21.0846 24.1387 21.8052 24.6698 22.3365L26.2083 23.875C28.1633 25.83 31.3367 25.83 33.2917 23.875L36.125 21.0417C36.9618 20.2038 37.9556 19.5391 39.0494 19.0856C40.1433 18.6322 41.3159 18.3987 42.5 18.3987C43.6842 18.3987 44.8567 18.6322 45.9506 19.0856C47.0445 19.5391 48.0382 20.2038 48.875 21.0417L55.25 27.4167M35.4167 35.9167L41.0833 41.5833M42.5 28.8333L48.1667 34.5" stroke="white" stroke-width="4" stroke-linecap="round" stroke-linejoin="round"/>
</svg>
